<?xml version="1.0" encoding="UTF-8" standalone="no"?>
<svg viewBox="0 0 45 45" version="1.1" xmlns="http://www.w3.org/2000/svg" xmlns:xlink="http://www.w3.org/1999/xlink">
    <g id="MyTV-Empty-State" transform="translate(-63.000000, -161.000000)">
        <g id="Group-3" transform="translate(40.000000, 134.000000)">
            <g id="Group-20" transform="translate(23.000000, 27.000000)">
                <path d="M21.375,21.375 L11.25,21.375 L11.25,23.625 L21.375,23.625 L21.375,33.75 L23.625,33.75 L23.625,23.625 L33.75,23.625 L33.75,21.375 L23.625,21.375 L23.625,11.25 L21.375,11.25 L21.375,21.375 Z M22.5,45 C10.0735931,45 0,34.9264069 0,22.5 C0,10.0735931 10.0735931,0 22.5,0 C34.9264069,0 45,10.0735931 45,22.5 C45,34.9264069 34.9264069,45 22.5,45 Z M22.5,43.3125 C33.9944264,43.3125 43.3125,33.9944264 43.3125,22.5 C43.3125,11.0055736 33.9944264,1.6875 22.5,1.6875 C11.0055736,1.6875 1.6875,11.0055736 1.6875,22.5 C1.6875,33.9944264 11.0055736,43.3125 22.5,43.3125 Z" id="Plus-Copy-9"></path>
            </g>
        </g>
    </g>
</svg>
