<svg xmlns="http://www.w3.org/2000/svg" width="52" height="58" viewBox="0 0 52 58">
    <path fill-rule="evenodd" d="M5.928 52.313l3.755-3.789a23.328 23.328 0 0 0 9.844 4.118V58a28.556 28.556 0 0 1-13.6-5.686zm40.765-27.079c-1.86-11.29-11.577-19.932-23.287-19.932-4.49 0-8.64 1.337-12.216 3.54l.015.01 4.404 2.6c.743.433.749 1.494.006 1.917L1.667 21.33c-.743.426-1.67-.116-1.667-.976L.038 4.18a1.089 1.089 0 0 1 1.658-.935l4.419 2.605C10.939 2.198 16.909 0 23.405 0 38.04 0 50.102 10.994 52 25.234h-5.306zm-19.41 27.41a23.365 23.365 0 0 0 9.844-4.12l3.755 3.79A28.544 28.544 0 0 1 27.282 58v-5.357zm15.326-9.652a23.83 23.83 0 0 0 4.085-9.933H52a29.08 29.08 0 0 1-5.635 13.722l-3.756-3.79z"/>
</svg>
