<svg xmlns="http://www.w3.org/2000/svg" width="20" height="20" viewBox="0 0 20 20">
    <path fill-rule="evenodd" d="M10 0c5.523 0 10 4.477 10 10s-4.477 10-10 10S0 15.523 0 10 4.477 0 10 0zm0 18.182c4.512 0 8.182-3.67 8.182-8.182 0-4.512-3.67-8.182-8.182-8.182-4.512 0-8.182 3.67-8.182 8.182 0 4.512 3.67 8.182 8.182 8.182zm-2.704-4.393c-1.075 0-1.916-.34-2.5-1.008-.571-.653-.86-1.585-.86-2.77 0-.744.139-1.409.414-1.977A3.11 3.11 0 0 1 5.58 6.68c.537-.315 1.14-.468 1.848-.468.688 0 1.427.18 2.138.52l-.83 1.735c-.447-.214-.912-.332-1.308-.332-.36 0-.637.064-.872.202a1.175 1.175 0 0 0-.475.536c-.148.305-.223.688-.223 1.14 0 .695.134 1.215.386 1.504.132.15.383.35 1.052.35.448 0 1.09-.156 1.452-.307l.74 1.776c-.544.226-1.432.454-2.192.454zm6.499 0c-1.075 0-1.916-.34-2.5-1.008-.572-.653-.861-1.585-.861-2.77 0-.744.14-1.409.414-1.977a3.11 3.11 0 0 1 1.23-1.355c.537-.315 1.141-.468 1.848-.468.688 0 1.427.18 2.139.52l-.83 1.735c-.447-.214-.912-.332-1.309-.332-.36 0-.637.064-.872.202a1.175 1.175 0 0 0-.475.536c-.147.305-.222.688-.222 1.14 0 .695.133 1.215.386 1.504.131.15.383.35 1.052.35.448 0 1.09-.156 1.451-.307l.74 1.776c-.543.226-1.431.454-2.191.454z"/>
</svg>
