<svg xmlns="http://www.w3.org/2000/svg" width="20" height="20" viewBox="0 0 20 20">
    <path fill-rule="evenodd" d="M5.364 13.276c-.21-.137-.4-.302-.568-.495-.571-.653-.86-1.585-.86-2.77 0-.744.139-1.409.414-1.977A3.11 3.11 0 0 1 5.58 6.68c.537-.315 1.14-.468 1.848-.468.688 0 1.427.18 2.138.52l-.83 1.735c-.447-.214-.912-.332-1.308-.332-.36 0-.637.064-.872.202a1.175 1.175 0 0 0-.475.536c-.148.305-.223.688-.223 1.14 0 .695.134 1.215.386 1.504.094.107.25.24.574.307l4.453-4.454c.126-.153.266-.293.418-.418l3.373-3.372A8.14 8.14 0 0 0 10 1.819c-4.512 0-8.182 3.67-8.182 8.181 0 1.91.66 3.668 1.76 5.062l1.786-1.786zm3.693-.974l.43 1.033a6.524 6.524 0 0 1-1.907.444l-2.642 2.642A8.14 8.14 0 0 0 10 18.181c4.512 0 8.182-3.67 8.182-8.181a8.14 8.14 0 0 0-1.76-5.062L15.01 6.35c.352.088.707.216 1.055.382l-.83 1.735c-.447-.214-.912-.332-1.309-.332-.36 0-.637.064-.872.202-.03.018-.06.037-.087.057l-.257.257a1.49 1.49 0 0 0-.13.222c-.148.305-.223.688-.223 1.14 0 .695.133 1.215.386 1.504.131.15.383.35 1.052.35.448 0 1.09-.156 1.451-.307l.74 1.776c-.543.226-1.431.454-2.191.454-1.075 0-1.916-.34-2.5-1.008-.426-.486-.695-1.127-.805-1.912l-1.433 1.433zM10 0c5.523 0 10 4.477 10 10s-4.477 10-10 10S0 15.523 0 10 4.477 0 10 0z"/>
</svg>
