<?xml version="1.0" encoding="UTF-8" standalone="no"?>
<svg viewBox="0 0 45 45" version="1.1" xmlns="http://www.w3.org/2000/svg" xmlns:xlink="http://www.w3.org/1999/xlink">
    <g id="Utility-Tiles" transform="translate(-173.000000, -574.000000)">
        <g id="Group-22" transform="translate(40.000000, 483.000000)">
            <g id="Group-8" transform="translate(110.000000, 39.000000)">
                <g id="Group-19" transform="translate(23.000000, 52.000000)">
                    <path d="M13.7495536,28.0684659 L12.3574371,33.0403105 L17.3292817,31.648194 L13.7495536,28.0684659 L13.7495536,28.0684659 Z M27.2729708,14.5450487 L14.1473011,27.6707183 L17.7270292,31.2504464 L30.8526989,18.1247768 L27.2729708,14.5450487 L27.2729708,14.5450487 Z M31.6471565,11.7597783 C31.2083897,11.3210115 30.5000136,11.3180059 30.0579589,11.7600606 L27.6707183,14.1473011 L31.2504464,17.7270292 L33.637687,15.3397887 C34.0766097,14.9008659 34.0761017,14.1887234 33.6379692,13.750591 L31.6471565,11.7597783 L31.6471565,11.7597783 Z M38.4099026,38.4099026 C47.1966991,29.623106 47.1966991,15.376894 38.4099026,6.59009742 C29.623106,-2.19669914 15.376894,-2.19669914 6.59009742,6.59009742 C-2.19669914,15.376894 -2.19669914,29.623106 6.59009742,38.4099026 C15.376894,47.1966991 29.623106,47.1966991 38.4099026,38.4099026 L38.4099026,38.4099026 Z M7.78334012,37.2166599 C-0.344446705,29.0888731 -0.344446705,15.9111269 7.78334012,7.78334012 C15.9111269,-0.344446705 29.0888731,-0.344446705 37.2166599,7.78334012 C45.3444467,15.9111269 45.3444467,29.0888731 37.2166599,37.2166599 C29.0888731,45.3444467 15.9111269,45.3444467 7.78334012,37.2166599 L7.78334012,37.2166599 Z" id="Rectangle-34-Copy"></path>
                </g>
            </g>
        </g>
    </g>
</svg>
