<?xml version="1.0" encoding="utf-8"?>
<!-- Generator: Adobe Illustrator 19.2.1, SVG Export Plug-In . SVG Version: 6.00 Build 0)  -->
<svg version="1.1" id="Layer_1" xmlns="http://www.w3.org/2000/svg" xmlns:xlink="http://www.w3.org/1999/xlink" x="0px" y="0px"
	 viewBox="0 0 100 99" style="enable-background:new 0 0 100 99;" xml:space="preserve">
<style type="text/css">
	.st0{fill:#999999;}
</style>
<title>Casper</title>
<desc>Created with Sketch.</desc>
<g id="Desktop">
	<g id="DESKTOP_x2F_-Search-Empty" transform="translate(-670.000000, -282.000000)">
		<g id="Casper" transform="translate(670.000000, 282.000000)">
			<g id="Clip-2">
				<path id="path-1_1_" class="st0" d="M3.2,48.6C3.2,54,4.1,59.1,5.7,64l0,0c0,0,2.5,9,0.4,16.8c-1,2.9-2.3,4.5-4,6.5
					c-3.2,3.8-3.1,8.1,3.5,9.2c26.5,4.5,45.6,1.9,55.5-0.4c2.6-0.5,5-1.3,7.4-2.2c0.2-0.1,0.3-0.3,0.3-0.3l0,0
					C87,86.7,100,69.2,100,48.4C100,21.6,78.3,0,51.6,0S3.2,21.8,3.2,48.6L3.2,48.6z M55.4,40.1c0-2.6,2.1-4.6,4.6-4.6
					c2.6,0,4.6,2.1,4.6,4.6c0,2.6-2.1,4.6-4.6,4.6C57.5,44.7,55.4,42.7,55.4,40.1L55.4,40.1z M35.6,40.1c0-2.6,2.1-4.6,4.6-4.6
					c2.6,0,4.6,2.1,4.6,4.6c0,2.6-2.1,4.6-4.6,4.6C37.7,44.7,35.6,42.7,35.6,40.1L35.6,40.1z M65.2,58c1.4,1,1.6,2.9,0.6,4.3
					c-1,1.4-2.9,1.6-4.3,0.6c-3.3-2.4-7.2-3.8-11.5-3.8s-8.3,1.4-11.5,3.8c-1.3,1-3.3,0.7-4.3-0.6c-1-1.4-0.7-3.3,0.6-4.3
					c4.2-3.1,9.5-5,15.2-5S61,54.9,65.2,58L65.2,58z"/>
			</g>
		</g>
	</g>
</g>
</svg>
