<svg xmlns="http://www.w3.org/2000/svg" width="20" height="20" viewBox="0 0 20 20">
    <path fill-rule="evenodd" d="M10 0c5.523 0 10 4.477 10 10s-4.477 10-10 10S0 15.523 0 10 4.477 0 10 0zm0 18.182c4.512 0 8.182-3.67 8.182-8.182 0-4.512-3.67-8.182-8.182-8.182-4.512 0-8.182 3.67-8.182 8.182 0 4.512 3.67 8.182 8.182 8.182zm1.093-12.604V6.62c0 .243-.172.44-.385.44H9.556c-.213 0-.386-.197-.386-.44V5.578c0-.243.173-.44.386-.44h1.152c.213 0 .385.197.385.44zm.955 7.348v1.295a.385.385 0 0 1-.384.384H7.97v-1.679h1.2V9.711h-.816a.385.385 0 0 1-.384-.384V8.033h2.733c.213 0 .385.172.385.384v4.51h.96z"/>
</svg>
