<?xml version="1.0" standalone="no"?>
<!DOCTYPE svg PUBLIC "-//W3C//DTD SVG 1.1//EN" "http://www.w3.org/Graphics/SVG/1.1/DTD/svg11.dtd" >
<svg xmlns="http://www.w3.org/2000/svg">
<metadata>Generated by IcoMoon</metadata>
<defs>
<font id="Sling-Actions" horiz-adv-x="1024">
<font-face units-per-em="1024" ascent="960" descent="-64" />
<missing-glyph horiz-adv-x="1024" />
<glyph unicode="&#x20;" horiz-adv-x="512" d="" />
<glyph unicode="&#xe801;" glyph-name="user" d="M576 253.388v52.78c70.498 39.728 128 138.772 128 237.832 0 159.058 0 288-192 288s-192-128.942-192-288c0-99.060 57.502-198.104 128-237.832v-52.78c-217.102-17.748-384-124.42-384-253.388h896c0 128.968-166.898 235.64-384 253.388z" />
<glyph unicode="&#xe900;" glyph-name="ellipsis" horiz-adv-x="1280" d="M160.040 528c11.28 0 21.68-2.080 31.28-6.24s18-9.92 25.28-17.2c7.28-7.28 13.040-15.68 17.2-25.36 4.16-9.52 6.24-20 6.24-31.2 0-11.28-2.080-21.68-6.24-31.28-4.16-9.52-9.92-18-17.2-25.28s-15.68-13.040-25.28-17.2c-9.6-4.16-20-6.24-31.28-6.24-11.2 0-21.6 2.080-31.28 6.24-9.6 4.16-18 9.92-25.36 17.2-7.2 7.28-12.96 15.76-17.12 25.28-4.080 9.6-6.32 20-6.32 31.28 0 11.2 2.24 21.68 6.32 31.2 4.16 9.68 9.92 18.080 17.12 25.36 7.36 7.28 15.76 13.040 25.36 17.2 9.68 4.16 20.080 6.24 31.28 6.24v0zM640.040 528c11.28 0 21.68-2.080 31.28-6.24s18-9.92 25.28-17.2c7.28-7.28 13.040-15.68 17.2-25.36 4.16-9.52 6.24-20 6.24-31.2 0-11.28-2.080-21.68-6.24-31.28-4.16-9.52-9.92-18-17.2-25.28s-15.68-13.040-25.28-17.2c-9.6-4.16-20-6.24-31.28-6.24-11.2 0-21.6 2.080-31.28 6.24-9.6 4.16-18 9.92-25.36 17.2-7.2 7.28-12.96 15.76-17.12 25.28-4.080 9.6-6.32 20-6.32 31.28 0 11.2 2.24 21.68 6.32 31.2 4.16 9.68 9.92 18.080 17.12 25.36 7.36 7.28 15.76 13.040 25.36 17.2 9.68 4.16 20.080 6.24 31.28 6.24v0zM1120.040 528c11.28 0 21.68-2.080 31.28-6.24s18-9.92 25.28-17.2c7.28-7.28 13.040-15.68 17.2-25.36 4.16-9.52 6.24-20 6.24-31.2 0-11.28-2.080-21.68-6.24-31.28-4.16-9.52-9.92-18-17.2-25.28s-15.68-13.040-25.28-17.2c-9.6-4.16-20-6.24-31.28-6.24-11.2 0-21.6 2.080-31.28 6.24-9.6 4.16-18 9.92-25.36 17.2-7.2 7.28-12.96 15.76-17.12 25.28-4.080 9.6-6.32 20-6.32 31.28 0 11.2 2.24 21.68 6.32 31.2 4.16 9.68 9.92 18.080 17.12 25.36 7.36 7.28 15.76 13.040 25.36 17.2 9.68 4.16 20.080 6.24 31.28 6.24v0z" />
<glyph unicode="&#xe901;" glyph-name="filter" horiz-adv-x="1502" d="M1058.199 755.2c56.554 0 102.4 45.846 102.4 102.4s-45.846 102.4-102.4 102.4c-56.554 0-102.4-45.846-102.4-102.4s45.846-102.4 102.4-102.4zM443.799 345.6c56.554 0 102.4 45.846 102.4 102.4s-45.846 102.4-102.4 102.4c-56.554 0-102.4-45.846-102.4-102.4s45.846-102.4 102.4-102.4zM921.666-64c56.554 0 102.4 45.846 102.4 102.4s-45.846 102.4-102.4 102.4c-56.554 0-102.4-45.846-102.4-102.4s45.846-102.4 102.4-102.4zM682.733 482.133h819.2v-85.333h-819.2v85.333zM1160.599 72.533h341.333v-85.333h-341.333v85.333zM0.066 482.133h204.8v-85.333h-204.8v85.333zM0.066 72.533h682.667v-85.333h-682.667v85.333zM1297.133 891.733h204.8v-85.333h-204.8v85.333zM0.066 891.733h819.2v-85.333h-819.2v85.333z" />
<glyph unicode="&#xe902;" glyph-name="hamburger" horiz-adv-x="1463" d="M0 82.286v-146.286h1462.857v146.286zM0 521.143v-146.286h1462.857v146.286zM0 960v-146.286h1462.857v146.286z" />
<glyph unicode="&#xe903;" glyph-name="mytv_off" horiz-adv-x="1138" d="M834.272 888.889v0c-18.567 0-37.939-3.456-58.305-10.58-21.624-7.568-41.597-17.708-60.073-30.469-21.721-14.993-40.242-28.945-55.456-41.716-14.958-12.568-29.164-25.916-42.618-40.043l-48.919-51.365-48.931 51.352c-13.475 14.141-27.686 27.492-42.626 40.045-15.162 12.733-33.672 26.674-55.481 41.735-18.461 12.749-38.435 22.886-60.056 30.456-20.378 7.128-39.75 10.584-58.316 10.584-77.701 0-134.505-21.073-174.505-62.081-39.838-40.842-60.279-98.976-60.279-178.807 0-22.059 3.775-45.324 11.537-69.946 8.467-26.867 17.818-49.069 27.788-66.517 11.127-19.473 23.787-38.535 37.986-57.171 14.749-19.358 25.407-32.561 30.892-38.49 5.586-6.032 9.578-9.994 11.127-11.294l4.785-4.414 397.086-402.264c-5.345 5.618-13.689 9.205-21.018 9.205-7.313 0-15.634-3.573-20.078-8.252l394.644 399.070c85.272 89.529 125.617 172.774 125.617 250.072 0 79.824-20.444 137.96-60.29 178.81-39.994 41.008-96.794 62.077-174.51 62.077v0zM557.021 828.108l11.868-12.107 11.81 12.055c11.676 11.586 23.822 22.679 36.436 33.277 16.942 14.222 37.141 29.45 60.637 45.668 23.48 16.218 48.878 29.114 76.184 38.671 27.299 9.549 54.076 14.328 80.315 14.328 94.825 0 169.108-27.551 222.864-82.67 53.756-55.111 80.642-131.553 80.642-229.328 0-98.225-48.465-198.226-145.394-299.994l-395.557-400.012c-7.622-7.995-16.934-11.996-27.938-11.996s-20.316 4.001-27.938 12.012l-396.188 401.337c-4.232 3.551-10.053 9.328-17.456 17.323-7.403 8.003-19.155 22.552-35.24 43.663s-30.478 42.787-43.173 65.003c-12.695 22.216-24.026 49.113-33.97 80.665-9.944 31.544-14.924 62.221-14.924 91.998 0 97.775 26.878 174.218 80.634 229.328s128.039 82.67 222.856 82.67c26.239 0 53.016-4.779 80.315-14.328 27.299-9.557 52.696-22.445 76.192-38.671s43.703-31.446 60.637-45.668c12.595-10.582 24.724-21.658 36.387-33.225v0z" />
<glyph unicode="&#xe904;" glyph-name="mytv_on" horiz-adv-x="1138" d="M526.844 856.043l42.045-40.043 41.89 39.915c2.105 1.82 4.224 3.625 6.356 5.417 16.942 14.222 37.141 29.45 60.637 45.668 23.48 16.218 48.878 29.114 76.184 38.671 27.299 9.549 54.076 14.328 80.315 14.328 94.825 0 169.108-27.551 222.864-82.67 53.756-55.111 80.642-131.553 80.642-229.328 0-98.225-48.465-198.226-145.394-299.994l-395.557-400.012c-7.622-7.995-16.934-11.996-27.938-11.996s-20.316 4.001-27.938 12.012l-396.188 401.337c-4.232 3.551-10.053 9.328-17.456 17.323-7.403 8.003-19.155 22.552-35.24 43.663s-30.478 42.787-43.173 65.003c-12.695 22.216-24.026 49.113-33.97 80.665-9.944 31.544-14.924 62.221-14.924 91.998 0 97.775 26.878 174.218 80.634 229.328s128.039 82.67 222.856 82.67c26.239 0 53.016-4.779 80.315-14.328 27.299-9.557 52.696-22.445 76.192-38.671s43.703-31.446 60.637-45.668c2.083-1.75 4.152-3.513 6.209-5.29v0z" />
<glyph unicode="&#xe905;" glyph-name="close" d="M85.371 819.426c1.561-1.536 1.561-1.536 8.992-8.851 10.171-10.013 10.171-10.013 25.43-25.043 27.388-26.981 57.908-57.073 90.776-89.509 93.905-92.672 187.808-185.565 275.444-272.576 2.77-2.749 2.77-2.749 5.54-5.5 222.422-220.87 367.655-367.362 389.002-393.398 15.695-19.141 43.935-21.936 63.076-6.242s21.936 43.935 6.242 63.076c-24.48 29.856-166.415 173.021-395.157 400.169-2.773 2.753-2.773 2.753-5.544 5.505-87.708 87.081-181.672 180.037-275.636 272.766-32.886 32.455-63.423 62.564-90.831 89.563-15.27 15.041-15.27 15.041-25.451 25.066-7.441 7.326-7.441 7.326-9.012 8.871-17.645 17.36-46.022 17.13-63.381-0.515s-17.13-46.022 0.515-63.381v0zM148.237 21.019c1.57 1.545 1.57 1.545 9.012 8.871 10.181 10.024 10.181 10.024 25.451 25.066 27.406 26.999 57.944 57.108 90.831 89.563 93.965 92.729 187.929 185.686 275.636 272.766 2.773 2.752 2.773 2.752 5.544 5.505 228.743 227.146 370.679 370.313 395.157 400.169 15.695 19.141 12.901 47.381-6.242 63.076s-47.381 12.901-63.076-6.242c-21.347-26.036-166.581-172.526-389.002-393.398-2.77-2.75-2.77-2.75-5.54-5.5-87.636-87.011-181.539-179.905-275.444-272.576-32.867-32.435-63.387-62.525-90.776-89.509-15.259-15.030-15.259-15.030-25.43-25.043-7.431-7.314-7.431-7.314-8.992-8.851-17.645-17.36-17.876-45.737-0.515-63.381s45.737-17.876 63.381-0.515v0z" />
<glyph unicode="&#xe906;" glyph-name="play" horiz-adv-x="910" d="M0.054 929.772l2.199-963.679c0.053-23.251 26.201-37.674 46.955-25.903l845.679 479.692c20.486 11.62 20.527 40.222 0.074 51.898l-847.879 483.986c-20.805 11.877-47.082-2.647-47.029-25.994v0zM27.157 891.237l824.305-470.529 0.072 50.454-822.166-466.355 45.649-25.183-2.138 936.884-45.721-25.27z" />
<glyph unicode="&#xe907;" glyph-name="rent" horiz-adv-x="1158" d="M924.396 717.418c11.769 6.524 18.534 26.1 8.531 42.96-0.72 2.486-76.988 150.287-79.672 155.261-15.028 27.115-48.618 37.374-75.37 22.544l-732.526-379.456c-27.444-15.2-36.544-49.122-21.668-75.959l85.616-158.692c7.366-13.652 24.473-18.645 38.026-11.099 34.757 19.354 77.76 6.578 97.411-28.873 20.631-37.22 9.848-81.684-22.879-95.826-22.129-16.264-10.073-40.558-6.155-43.553 10.599-20.744 77.994-149.092 79.204-151.255 14.824-26.744 48.414-37.003 75.167-22.173l732.526 379.456c27.444 15.2 36.544 49.122 21.668 75.959l-88.275 155.008c-7.548 13.254-24.359 17.961-37.693 10.554-33.958-18.864-76.926-5.913-96.518 29.433-20.184 36.412-8.615 82.608 22.608 95.711zM1025.331 543.625l-37.693 10.554 88.117-154.728c0.021-0.042-731.967-379.109-731.967-379.109-1.511 2.45-65.931 118.031-73.301 131.388-4.168 7.554-7.398 13.442-9.591 17.491-1.553 2.876-1.553 2.876-2.462 4.598 0.602-1.508 0.602-1.508 1.321-3.823 3.905-2.941 3.905-2.941-15.816-32.804 65.258 28.201 85.034 109.746 49.477 173.893-34.447 62.144-111.281 84.97-173.159 50.515l38.026-11.099-85.768 158.97c-0.33 0.6 731.657 379.667 731.657 379.667 2.776-4.88 74.589-138.919 78.436-146.278 2.042-3.906 3.584-6.894 4.575-8.865 0.646-1.296 0.646-1.296 0.849-1.723-0.721 1.771-0.721 1.771-1.401 4.118-3.801 3.158-3.801 3.158 16.228 32.344-64.065-26.885-84.988-110.433-49.748-174.008 34.337-61.946 111.065-85.073 172.218-51.101zM719.395 453.792c11.908-22.395 13.535-45.203 4.883-68.426s-27.519-44.745-56.602-64.567l26.73-50.272-30.812-16.383-25.991 48.882c-38.631-19.748-73.182-30.591-103.651-32.528l-25.991 48.882c16.732 0.576 35.148 3.384 55.25 8.427s37.221 11.222 51.358 18.541l-46.070 86.645-23.279-3.165c-30.503-3.738-55.177-1.95-74.024 5.364s-33.566 20.933-44.16 40.856c-11.333 21.314-12.352 43.257-3.058 65.831s27.37 42.883 54.228 60.928l-20.694 38.921 30.812 16.383 20.325-38.226c31.928 15.589 65.025 25.065 99.294 28.428l5.63-51.388c-29.34-3.317-56.472-10.414-81.396-21.289l44.838-84.328 21.179 2.643c35.34 4.328 61.973 3.235 79.899-3.281s31.694-18.808 41.302-36.878v0zM666.568 421.247c-4.763 8.958-11.812 14.67-21.146 17.136s-22.775 2.501-40.322 0.105l39.295-73.903c24.965 18.623 32.357 37.511 22.174 56.662v0zM481.232 505.459c4.681-8.804 11.323-14.682 19.926-17.636s21.606-3.469 39.008-1.546l-38.309 72.049c-11.37-8.423-18.78-17.216-22.228-26.38s-2.914-17.993 1.603-26.487v0z" />
<glyph unicode="&#xe908;" glyph-name="record" d="M512-31.992c265.092 0 479.992 214.9 479.992 479.992s-214.9 479.992-479.992 479.992c-265.092 0-479.992-214.9-479.992-479.992s214.9-479.992 479.992-479.992v0zM512 30.345c-230.664 0-417.655 186.991-417.655 417.655s186.991 417.655 417.655 417.655c230.664 0 417.655-186.991 417.655-417.655s-186.991-417.655-417.655-417.655v0zM751.996 448c0-132.546-107.45-239.996-239.996-239.996s-239.996 107.45-239.996 239.996c0 132.546 107.45 239.996 239.996 239.996s239.996-107.45 239.996-239.996z" />
<glyph unicode="&#xe909;" glyph-name="search" horiz-adv-x="1081" d="M433.75 127.907c220.978 0 400.117 179.138 400.117 400.117s-179.138 400.117-400.117 400.117c-220.978 0-400.117-179.138-400.117-400.117s179.138-400.117 400.117-400.117v0zM433.75 198.102c-182.21 0-329.921 147.71-329.921 329.921s147.71 329.921 329.921 329.921c182.21 0 329.921-147.71 329.921-329.921s-147.71-329.921-329.921-329.921v0zM720.236 247.672c13.286-13.092 20.484-20.188 32.111-31.663 33.217-32.781 66.434-65.641 97.431-96.416 0.98-0.972 0.98-0.972 1.959-1.945 77.473-76.933 129.508-129.419 136.452-137.887 11.676-14.24 32.685-16.319 46.925-4.643s16.319 32.685 4.643 46.925c-9.274 11.31-58.856 61.322-141.031 142.924-0.982 0.974-0.982 0.974-1.963 1.949-31.050 30.828-64.312 63.734-97.574 96.559-11.641 11.488-18.847 18.593-32.152 31.703-9.981 9.829-9.981 9.829-12.203 12.017-13.127 12.915-34.238 12.743-47.152-0.384s-12.743-34.238 0.384-47.152c2.208-2.173 2.208-2.173 12.172-11.986z" />
<glyph unicode="&#xe90a;" glyph-name="trailer" horiz-adv-x="1536" d="M1420.19 469.969c-2.106-3.044-6.47-9.106-12.976-17.752-10.996-14.613-23.902-30.95-38.599-48.575-42.064-50.45-89.887-100.921-142.466-147.941-148.252-132.58-303.864-211.511-458.15-211.511s-309.897 78.931-458.15 211.511c-52.579 47.020-100.402 97.492-142.466 147.941-14.696 17.626-27.602 33.962-38.599 48.575-6.505 8.646-10.87 14.707-12.976 17.752v-43.939c2.106 3.044 6.47 9.106 12.976 17.752 10.996 14.613 23.902 30.95 38.599 48.575 42.064 50.45 89.887 100.921 142.466 147.941 148.252 132.58 303.864 211.511 458.15 211.511s309.897-78.931 458.15-211.511c52.579-47.020 100.402-97.492 142.466-147.941 14.696-17.626 27.602-33.962 38.599-48.575 6.505-8.646 10.87-14.707 12.976-17.752v43.939zM1481.168 426.031c9.109 13.171 9.109 30.768 0 43.939-2.67 3.861-7.627 10.745-14.76 20.225-11.736 15.595-25.422 32.919-40.951 51.544-44.292 53.122-94.607 106.222-150.121 155.868-160.585 143.61-331.68 230.393-507.336 230.393s-346.751-86.783-507.336-230.393c-55.515-49.646-105.83-102.746-150.121-155.868-15.529-18.624-29.214-35.948-40.951-51.544-7.133-9.48-12.091-16.364-14.76-20.225-9.109-13.171-9.109-30.768 0-43.939 2.67-3.861 7.627-10.745 14.76-20.225 11.736-15.595 25.422-32.919 40.951-51.544 44.292-53.122 94.607-106.222 150.121-155.868 160.585-143.61 331.68-230.393 507.336-230.393s346.751 86.783 507.336 230.393c55.515 49.646 105.83 102.746 150.121 155.868 15.529 18.624 29.214 35.948 40.951 51.544 7.133 9.48 12.091 16.364 14.76 20.225v0zM768 221.171c-125.289 0-226.829 101.523-226.829 226.829s101.54 226.829 226.829 226.829c125.289 0 226.829-101.523 226.829-226.829s-101.54-226.829-226.829-226.829v0zM768 148c165.697 0 300 134.279 300 300s-134.302 300-300 300c-165.697 0-300-134.279-300-300s134.302-300 300-300v0z" />
<glyph unicode="&#xe90b;" glyph-name="cancel" d="M880.126 163l-285 285 285 285c23.751 23.751 23.751 59.375 0 83.125s-59.375 23.751-83.125 0l-285-285-285 285c-23.751 23.751-59.375 23.751-83.125 0s-23.751-59.375 0-83.125l285-285-285-285c-23.751-23.751-23.751-59.375 0-83.125s59.375-23.751 83.125 0l285 285 285-285c23.751-23.751 59.375-23.751 83.125 0s23.751 59.375 0 83.125z" />
<glyph unicode="&#xe90c;" glyph-name="fullscreen-exit" d="M686.648 98.498v218.517l-43.662-43.662h218.47c24.114 0 43.662 19.548 43.662 43.662s-19.548 43.662-43.662 43.662h-218.47c-24.114 0-43.662-19.548-43.662-43.662v-218.517c0-24.114 19.548-43.662 43.662-43.662s43.662 19.548 43.662 43.662v0zM677.605 220.648l240.141-240.141c17.051-17.051 44.696-17.051 61.747 0s17.051 44.696 0 61.747l-240.141 240.141c-17.051 17.051-44.696 17.051-61.747 0s-17.051-44.696 0-61.747v0zM425.481 97.264v219.75c0 24.114-19.548 43.662-43.662 43.662h-216.586c-24.114 0-43.662-19.548-43.662-43.662s19.548-43.662 43.662-43.662h216.586l-43.662 43.662v-219.75c0-24.114 19.548-43.662 43.662-43.662s43.662 19.548 43.662 43.662v0zM284.648 282.395l-240.141-240.141c-17.051-17.051-17.051-44.696 0-61.747s44.696-17.051 61.747 0l240.141 240.141c17.051 17.051 17.051 44.696 0 61.747s-44.696 17.051-61.747 0v0zM599.324 795.954v-215.103c0-24.114 19.548-43.662 43.662-43.662h218.47c24.114 0 43.662 19.548 43.662 43.662s-19.548 43.662-43.662 43.662h-218.47l43.662-43.662v215.103c0 24.114-19.548 43.662-43.662 43.662s-43.662-19.548-43.662-43.662v0zM739.352 613.605l240.141 240.141c17.051 17.051 17.051 44.696 0 61.747s-44.696 17.051-61.747 0l-240.141-240.141c-17.051-17.051-17.051-44.696 0-61.747s44.696-17.051 61.747 0v0zM338.157 797.186v-216.337l43.662 43.662h-217.819c-24.114 0-43.662-19.548-43.662-43.662s19.548-43.662 43.662-43.662h217.819c24.114 0 43.662 19.548 43.662 43.662v216.337c0 24.114-19.548 43.662-43.662 43.662s-43.662-19.548-43.662-43.662v0zM346.395 675.352l-240.141 240.141c-17.051 17.051-44.696 17.051-61.747 0s-17.051-44.696 0-61.747l240.141-240.141c17.051-17.051 44.696-17.051 61.747 0s17.051 44.696 0 61.747v0z" />
<glyph unicode="&#xe90d;" glyph-name="fullscreen" horiz-adv-x="1071" d="M142.408 665.015v218.36l-43.63-43.63h218.314c24.096 0 43.63 19.534 43.63 43.63s-19.534 43.63-43.63 43.63h-218.314c-24.096 0-43.63-19.534-43.63-43.63v-218.36c0-24.096 19.534-43.63 43.63-43.63s43.63 19.534 43.63 43.63v0zM133.372 787.079l239.969-239.969c17.039-17.039 44.664-17.039 61.703 0s17.039 44.664 0 61.703l-239.969 239.969c-17.039 17.039-44.664 17.039-61.703 0s-17.039-44.664 0-61.703v0zM1015.827 663.783v219.593c0 24.096-19.534 43.63-43.63 43.63h-216.431c-24.096 0-43.63-19.534-43.63-43.63s19.534-43.63 43.63-43.63h216.431l-43.63 43.63v-219.593c0-24.096 19.534-43.63 43.63-43.63s43.63 19.534 43.63 43.63v0zM875.094 848.782l-239.969-239.969c-17.039-17.039-17.039-44.664 0-61.703s44.664-17.039 61.703 0l239.969 239.969c17.039 17.039 17.039 44.664 0 61.703s-44.664 17.039-61.703 0v0zM55.147 227.574v-214.949c0-24.096 19.534-43.63 43.63-43.63h218.314c24.096 0 43.63 19.534 43.63 43.63s-19.534 43.63-43.63 43.63h-218.314l43.63-43.63v214.949c0 24.096-19.534 43.63-43.63 43.63s-43.63-19.534-43.63-43.63v0zM195.075 45.356l239.969 239.969c17.039 17.039 17.039 44.664 0 61.703s-44.664 17.039-61.703 0l-239.969-239.969c-17.039-17.039-17.039-44.664 0-61.703s44.664-17.039 61.703 0v0zM928.565 228.806v-216.182l43.63 43.63h-217.663c-24.096 0-43.63-19.534-43.63-43.63s19.534-43.63 43.63-43.63h217.663c24.096 0 43.63 19.534 43.63 43.63v216.182c0 24.096-19.534 43.63-43.63 43.63s-43.63-19.534-43.63-43.63v0zM696.828 347.028c-17.039 17.039-44.664 17.039-61.703 0s-17.039-44.664 0-61.703l239.969-239.969c17.039-17.039 44.664-17.039 61.703 0s17.039 44.664 0 61.703l-239.969 239.969z" />
<glyph unicode="&#xe90e;" glyph-name="minimize" horiz-adv-x="1091" d="M962.749 695.081l-448.723-426.162 65.131 0.077-450.95 426.162c-19.007 17.961-48.973 17.113-66.94-1.894s-17.113-48.973 1.894-66.94l450.951-426.162c18.284-17.282 46.886-17.245 65.131 0.077l448.722 426.162c18.963 18.007 19.735 47.979 1.725 66.943s-47.979 19.735-66.942 1.725v0z" />
<glyph unicode="&#xe90f;" glyph-name="back" d="M512 884.148c-240.488 0-436.148-195.66-436.148-436.148s195.66-436.148 436.148-436.148c240.488 0 436.148 195.66 436.148 436.148s-195.66 436.148-436.148 436.148zM480 544v128l-256-224 256-224v128h261.134v192h-261.134zM512-64c-282.321 0-512 229.679-512 512s229.679 512 512 512c282.321 0 512-229.679 512-512s-229.679-512-512-512z" />
<glyph unicode="&#xe910;" glyph-name="volume-off" horiz-adv-x="860" d="M50.726 262.026h-0.412c-13.623 0-25.413 5.13-35.379 15.37-9.957 10.23-14.935 22.365-14.935 36.375v310.422c0 14.010 4.978 26.145 14.935 36.385 9.957 10.23 21.747 15.36 35.379 15.36h205.947l272.464 264.201c9.957 10.23 21.747 15.36 35.37 15.36 13.633 0 25.413-5.13 35.379-15.36 9.947-10.24 14.926-22.375 14.926-36.385v-78.054l-563.674-563.674zM320.649 197.217l208.066-209.398c9.957-10.23 21.747-15.36 35.37-15.36 13.633 0 25.423 5.13 35.379 15.36s14.935 22.365 14.935 36.375v466.773l-293.751-293.751zM0 108.073l774.123 774.123 57.926-57.926-774.123-774.123-57.926 57.926z" />
<glyph unicode="&#xe911;" glyph-name="volume-low" horiz-adv-x="614" d="M528.725 940.14l-272.464-264.201h-205.947c-13.633 0-25.423-5.13-35.379-15.36-9.957-10.24-14.935-22.375-14.935-36.385v-310.422c0-14.010 4.978-26.145 14.935-36.375 9.966-10.24 21.756-15.37 35.379-15.37h205.938l272.464-274.207c9.957-10.23 21.747-15.36 35.37-15.36 13.633 0 25.423 5.13 35.379 15.36s14.935 22.365 14.935 36.375v879.559c0 14.010-4.978 26.145-14.926 36.385-9.966 10.23-21.747 15.36-35.379 15.36-13.623 0-25.413-5.13-35.37-15.36z" />
<glyph unicode="&#xe912;" glyph-name="volume-med" horiz-adv-x="901" d="M855.052 339.338c22.324 33.526 33.481 69.739 33.481 108.648s-11.157 75.291-33.481 109.081c-22.333 33.79-51.85 57.59-88.618 71.417-5.25 2.554-11.824 3.836-19.694 3.836-13.651 0-25.476-4.741-35.443-14.204-9.968-9.473-14.976-21.123-14.976-34.94 0-10.754 3.152-19.841 9.465-27.268 6.304-7.427 13.912-13.827 22.846-19.2 8.914-5.373 17.847-11.263 26.781-17.663s16.542-15.486 22.846-27.258c6.284-11.782 9.446-26.372 9.446-43.781s-3.152-32-9.446-43.781c-6.304-11.782-13.912-20.859-22.846-27.268-8.933-6.4-17.867-12.291-26.781-17.663-8.933-5.363-16.542-11.772-22.846-19.19-6.304-7.437-9.465-16.513-9.465-27.268 0-13.827 5.008-25.468 14.976-34.94s21.792-14.214 35.443-14.214c7.87 0 14.444 1.282 19.694 3.827 36.768 14.355 66.294 38.296 88.618 71.832v0zM528.725 940.14l-272.464-264.201h-205.947c-13.633 0-25.423-5.13-35.379-15.36-9.957-10.24-14.935-22.375-14.935-36.385v-310.422c0-14.010 4.978-26.145 14.935-36.375 9.966-10.24 21.756-15.37 35.379-15.37h205.938l272.464-274.207c9.957-10.23 21.747-15.36 35.37-15.36 13.633 0 25.423 5.13 35.379 15.36s14.935 22.365 14.935 36.375v879.559c0 14.010-4.978 26.145-14.926 36.385-9.966 10.23-21.747 15.36-35.379 15.36-13.623 0-25.413-5.13-35.37-15.36z" />
<glyph unicode="&#xe913;" glyph-name="volume-high" horiz-adv-x="1106" d="M1026.363 249.701c44.638 66.851 66.962 139.776 66.962 218.774s-22.324 151.914-66.962 218.803c-44.638 66.851-103.73 115.509-177.236 145.973-6.816 2.576-13.651 3.869-20.467 3.869-13.651 0-25.476-4.905-35.463-14.714-9.968-9.809-14.957-21.425-14.957-34.846 0-20.142 10.239-35.369 30.725-45.702 29.401-14.971 49.356-26.33 59.855-34.067 38.866-27.889 69.185-62.859 90.977-104.939s32.688-86.869 32.688-134.367c0-47.498-10.896-92.287-32.688-134.367-21.792-42.090-52.121-77.050-90.977-104.929-10.5-7.747-30.455-19.106-59.855-34.077-20.487-10.332-30.725-25.56-30.725-45.702 0-13.422 4.989-25.047 14.957-34.846 9.987-9.819 22.053-14.724 36.236-14.724 6.304 0 12.878 1.302 19.694 3.869 73.507 30.474 132.599 79.132 177.236 145.992v0zM855.052 339.338c22.324 33.526 33.481 69.739 33.481 108.648s-11.157 75.291-33.481 109.081c-22.333 33.79-51.85 57.59-88.618 71.417-5.25 2.554-11.824 3.836-19.694 3.836-13.651 0-25.476-4.741-35.443-14.204-9.968-9.473-14.976-21.123-14.976-34.94 0-10.754 3.152-19.841 9.465-27.268 6.304-7.427 13.912-13.827 22.846-19.2 8.914-5.373 17.847-11.263 26.781-17.663s16.542-15.486 22.846-27.258c6.284-11.782 9.446-26.372 9.446-43.781s-3.152-32-9.446-43.781c-6.304-11.782-13.912-20.859-22.846-27.268-8.933-6.4-17.867-12.291-26.781-17.663-8.933-5.363-16.542-11.772-22.846-19.19-6.304-7.437-9.465-16.513-9.465-27.268 0-13.827 5.008-25.468 14.976-34.94s21.792-14.214 35.443-14.214c7.87 0 14.444 1.282 19.694 3.827 36.768 14.355 66.294 38.296 88.618 71.832v0zM528.725 940.14l-272.464-264.201h-205.947c-13.633 0-25.423-5.13-35.379-15.36-9.957-10.24-14.935-22.375-14.935-36.385v-310.422c0-14.010 4.978-26.145 14.935-36.375 9.966-10.24 21.756-15.37 35.379-15.37h205.938l272.464-274.207c9.957-10.23 21.747-15.36 35.37-15.36 13.633 0 25.423 5.13 35.379 15.36s14.935 22.365 14.935 36.375v879.559c0 14.010-4.978 26.145-14.926 36.385-9.966 10.23-21.747 15.36-35.379 15.36-13.623 0-25.413-5.13-35.37-15.36z" />
<glyph unicode="&#xe914;" glyph-name="volume-max" horiz-adv-x="1170" d="M833.231 956.403c-6.272 2.395-12.562 3.597-18.834 3.597-12.562 0-23.443-4.57-32.616-13.683-9.19-9.122-13.781-19.932-13.781-32.412 0-17.28 9.422-31.449 28.274-42.488 3.39-1.909 8.808-4.428 16.299-7.557 7.491-3.111 12.927-5.63 16.317-7.548 22.224-11.994 42.037-24.245 59.448-36.725 59.43-43.682 105.836-98.173 139.172-163.466 33.345-65.293 50.009-134.66 50.009-208.12 0-73.469-16.664-142.827-50.009-208.12-33.336-65.293-79.742-119.793-139.172-163.466-17.411-12.48-37.224-24.722-59.448-36.725-3.39-1.909-8.826-4.428-16.317-7.548-7.491-3.111-12.909-5.63-16.299-7.557-18.852-11.040-28.274-25.208-28.274-42.488 0-12.48 4.591-23.29 13.781-32.403 9.173-9.122 20.053-13.691 32.616-13.691 6.272 0 12.562 1.202 18.834 3.606 101.966 43.682 183.638 111.741 245.008 204.16 61.37 92.41 92.046 193.836 92.046 304.251s-30.667 211.823-92.046 304.225c-61.37 92.41-143.042 160.47-245.008 204.16zM916.396 252.661c39.855 59.688 59.787 124.8 59.787 195.334s-19.932 135.637-59.787 195.36c-39.855 59.688-92.616 103.133-158.247 130.333-6.086 2.3-12.189 3.454-18.275 3.454-12.189 0-22.746-4.379-31.663-13.138-8.9-8.758-13.354-19.129-13.354-31.113 0-17.984 9.142-31.58 27.433-40.805 26.251-13.367 44.068-23.509 53.442-30.417 34.702-24.901 61.773-56.124 81.23-93.695s29.186-77.562 29.186-119.971c0-42.409-9.729-82.399-29.186-119.971-19.457-37.58-46.537-68.795-81.23-93.687-9.375-6.917-27.192-17.059-53.442-30.426-18.292-9.225-27.433-22.821-27.433-40.805 0-11.983 4.454-22.363 13.354-31.113 8.917-8.767 19.69-13.146 32.354-13.146 5.628 0 11.498 1.163 17.584 3.454 65.631 27.209 118.392 70.653 158.247 130.35v0zM763.439 332.695c19.932 29.934 29.894 62.267 29.894 97.007s-9.962 67.224-29.894 97.394c-19.941 30.17-46.295 51.419-79.123 63.765-4.687 2.281-10.557 3.425-17.584 3.425-12.189 0-22.746-4.233-31.646-12.682-8.9-8.458-13.371-18.859-13.371-31.197 0-9.602 2.814-17.715 8.451-24.346 5.628-6.632 12.422-12.346 20.398-17.143 7.959-4.797 15.935-10.057 23.911-15.771s14.77-13.827 20.398-24.338c5.611-10.52 8.434-23.547 8.434-39.090s-2.814-28.571-8.434-39.091c-5.628-10.52-12.422-18.624-20.398-24.346-7.976-5.714-15.952-10.974-23.911-15.771-7.976-4.788-14.77-10.511-20.398-17.134-5.628-6.64-8.451-14.744-8.451-24.346 0-12.346 4.472-22.739 13.371-31.197s19.457-12.691 31.646-12.691c7.027 0 12.897 1.145 17.584 3.417 32.829 12.817 59.191 34.193 79.123 64.135v0zM472.076 869.125l-243.271-235.894h-183.881c-12.172 0-22.699-4.58-31.589-13.714-8.89-9.143-13.335-19.978-13.335-32.487v-277.162c0-12.509 4.445-23.344 13.335-32.478 8.899-9.143 19.425-13.723 31.589-13.723h183.873l243.271-244.828c8.89-9.134 19.417-13.714 31.58-13.714 12.172 0 22.699 4.58 31.589 13.714s13.335 19.969 13.335 32.478v785.321c0 12.509-4.445 23.344-13.326 32.487-8.899 9.134-19.417 13.714-31.589 13.714-12.163 0-22.69-4.58-31.58-13.714z" />
<glyph unicode="&#xe915;" glyph-name="play_player" horiz-adv-x="878" d="M27.438 928v-960l822.857 480z" />
<glyph unicode="&#xe916;" glyph-name="pause" horiz-adv-x="658" d="M226.279-31.992h-205.711v959.984h205.711v-959.984zM637.701-31.992h-205.711v959.984h205.711v-959.984z" />
<glyph unicode="&#xe917;" glyph-name="delete" horiz-adv-x="853" d="M796.444 846.222h-170.667v56.889c0 34.133-22.756 56.889-56.889 56.889h-284.444c-34.133 0-56.889-22.756-56.889-56.889v-56.889h-170.667c-34.133 0-56.889-22.756-56.889-56.889s22.756-56.889 56.889-56.889h56.889l56.889-739.556c0-34.133 22.756-56.889 56.889-56.889h398.222c34.133 0 56.889 22.756 56.889 56.889v0l56.889 739.556h56.889c34.133 0 56.889 22.756 56.889 56.889s-22.756 56.889-56.889 56.889zM574.578 49.778h-295.822l-51.2 682.667h398.222l-51.2-682.667zM426.667 186.311c34.133 0 56.889 22.756 56.889 56.889v295.822c0 34.133-22.756 56.889-56.889 56.889s-56.889-22.756-56.889-56.889v-295.822c0-28.444 28.444-56.889 56.889-56.889z" />
<glyph unicode="&#xe918;" glyph-name="rec-multiple" horiz-adv-x="2304" d="M512 960c-281.6 0-512-230.4-512-512s230.4-512 512-512 512 230.4 512 512-230.4 512-512 512zM512 64c-213.333 0-384 170.667-384 384s170.667 384 384 384 384-170.667 384-384-170.667-384-384-384zM512 192c140.8 0 256 115.2 256 256s-115.2 256-256 256-256-115.2-256-256 115.2-256 256-256zM1152 960c-55.467 0-110.933-8.533-162.133-25.6 34.133-34.133 64-68.267 89.6-106.667 25.6 0 46.933 4.267 72.533 4.267 213.333 0 384-170.667 384-384s-170.667-384-384-384c-25.6 0-46.933 4.267-72.533 8.533-25.6-38.4-55.467-76.8-89.6-106.667 51.2-17.067 102.4-25.6 162.133-25.6 281.6 0 512 230.4 512 512s-230.4 507.733-512 507.733zM1152 704c-4.267 0-4.267 0-8.533 0 29.867-81.067 51.2-166.4 51.2-256s-17.067-174.933-51.2-256c4.267 0 4.267 0 8.533 0 140.8 0 256 115.2 256 256s-115.2 256-256 256zM1792 960c-55.467 0-110.933-8.533-162.133-25.6 34.133-34.133 64-68.267 89.6-106.667 25.6 0 46.933 4.267 72.533 4.267 213.333 0 384-170.667 384-384s-170.667-384-384-384c-25.6 0-46.933 4.267-72.533 8.533-25.6-38.4-55.467-76.8-89.6-106.667 51.2-17.067 102.4-25.6 162.133-25.6 281.6 0 512 230.4 512 512s-230.4 507.733-512 507.733zM1792 704c-4.267 0-4.267 0-8.533 0 29.867-81.067 51.2-166.4 51.2-256s-17.067-174.933-51.2-256c4.267 0 4.267 0 8.533 0 140.8 0 256 115.2 256 256s-115.2 256-256 256z" />
<glyph unicode="&#xe919;" glyph-name="rec-single" d="M512 960c-281.6 0-512-230.4-512-512s230.4-512 512-512 512 230.4 512 512-230.4 512-512 512zM512 64c-213.333 0-384 170.667-384 384s170.667 384 384 384 384-170.667 384-384-170.667-384-384-384zM512 192c140.8 0 256 115.2 256 256s-115.2 256-256 256-256-115.2-256-256 115.2-256 256-256z" />
<glyph unicode="&#xe91a;" glyph-name="locked" horiz-adv-x="853" d="M768 533.333v0c42.667 0 85.333-34.133 85.333-76.8v-443.733c0-42.667-34.133-76.8-85.333-76.8h-682.667c-42.667 0-85.333 34.133-85.333 76.8v443.733c0 42.667 34.133 76.8 85.333 76.8h42.667v145.067c0 153.6 128 281.6 298.667 281.6s307.2-128 307.2-281.6v-145.067h34.133zM238.933 678.4v-145.067h375.467v145.067c0 85.333-85.333 170.667-187.733 170.667s-187.733-85.333-187.733-170.667z" />
<glyph unicode="&#xe91b;" glyph-name="new" horiz-adv-x="2194" d="M0 960v-1024h2194.286v1024h-2194.286zM753.371 184.686c0-7.314-7.314-14.629-14.629-14.629h-7.314c-7.314 0-14.629 0-21.943 7.314l-292.571 292.571v-285.257c0-7.314-7.314-14.629-14.629-14.629h-87.771c-7.314 0-14.629 7.314-14.629 14.629v504.686c0 7.314 7.314 14.629 14.629 14.629h14.629c7.314 0 14.629-7.314 21.943-14.629l292.571-277.943v285.257c0 7.314 7.314 14.629 14.629 14.629h87.771c7.314 0 14.629-7.314 14.629-14.629v-512zM1214.171 616.229c0-7.314-7.314-14.629-14.629-14.629h-212.114v-95.086h175.543c7.314 0 14.629-7.314 14.629-14.629v-80.457c0-7.314-7.314-14.629-14.629-14.629h-175.543v-102.4h212.114c7.314 0 14.629-7.314 14.629-14.629v-80.457c0-7.314-7.314-14.629-14.629-14.629h-314.514c-7.314 0-14.629 7.314-14.629 14.629v497.371c0 7.314 7.314 14.629 14.629 14.629h314.514c7.314 0 14.629-7.314 14.629-14.629v-80.457zM1755.429 184.686c0-7.314-7.314-7.314-14.629-7.314h-14.629c-7.314 0-7.314 7.314-14.629 7.314l-138.971 307.2-138.971-307.2c0-7.314-7.314-7.314-14.629-7.314h-14.629c-7.314 0-14.629 7.314-14.629 7.314l-146.286 504.686c0 7.314 0 14.629 14.629 14.629h87.771c7.314 0 14.629-7.314 14.629-7.314l65.829-256 117.029 263.314c0 7.314 7.314 7.314 14.629 7.314h14.629c7.314 0 14.629-7.314 14.629-7.314l117.029-263.314 65.829 256c0 7.314 7.314 7.314 14.629 7.314h87.771c7.314 0 14.629-7.314 14.629-14.629l-131.657-504.686z" />
<glyph unicode="&#xe91c;" glyph-name="protect-badge" horiz-adv-x="951" d="M928.914 740.571l-402.286 204.8c-29.257 21.943-73.143 14.629-102.4 0l-402.286-204.8c-14.629-7.314-21.943-29.257-21.943-43.886 0-29.257 7.314-760.686 475.429-760.686s475.429 731.429 475.429 760.686c0 14.629-7.314 36.571-21.943 43.886zM782.629 513.829l-292.571-321.829c-14.629-14.629-36.571-21.943-51.2-21.943s-36.571 7.314-51.2 21.943l-160.914 138.971c-29.257 29.257-29.257 73.143-7.314 102.4 29.257 29.257 73.143 29.257 102.4 7.314l109.714-102.4 248.686 263.314c29.257 29.257 73.143 29.257 102.4 7.314 21.943-29.257 21.943-73.143 0-95.086z" />
<glyph unicode="&#xe91d;" glyph-name="no-tv" horiz-adv-x="1569" d="M54.468 164.766h1459.745v740.766h-1459.745v-740.766zM0 909.889c0 27.234 21.787 50.111 49.021 50.111h1469.549c27.234 0 50.111-21.787 50.111-50.111v-749.481c0-27.234-21.787-50.111-50.111-50.111h-570.826v-89.328c0-5.447-1.089-14.162-2.179-19.609h143.796c18.519 0 32.681-11.983 32.681-30.502s-14.162-34.86-32.681-34.86h-608.953c-18.519 0-33.77 15.251-33.77 34.86 0 9.804 4.357 15.251 9.804 20.698 6.536 6.536 14.162 9.804 23.966 9.804h142.706c-2.179 5.447-2.179 13.072-2.179 19.609v89.328h-571.915c-27.234 0-49.021 21.787-49.021 50.111v749.481zM652.528 684.391l274.519-160.136-274.519-161.226z" />
<glyph unicode="&#xe91e;" glyph-name="add-icon" d="M486.969 473.031h-213.902v-50.062h213.902v-213.902h50.062v211.627h213.902v50.062h-213.902v216.178h-50.062v-213.902zM512-64c-282.169 0-512 229.831-512 512s229.831 512 512 512 512-229.831 512-512-229.831-512-512-512zM512-18.489c257.138 0 466.489 209.351 466.489 466.489s-209.351 466.489-466.489 466.489-466.489-209.351-466.489-466.489 209.351-466.489 466.489-466.489z" />
<glyph unicode="&#xe91f;" glyph-name="edit-icon" d="M304.924 313.742l-31.858-113.778 113.778 31.858-81.92 81.92zM612.124 620.942l-282.169-282.169 81.92-81.92 282.169 282.169-81.92 81.92zM723.627 696.036c-9.102 9.102-25.031 9.102-36.409 0l-54.613-54.613 81.92-81.92 54.613 54.613c9.102 9.102 9.102 27.307 0 36.409l-45.511 45.511zM1024 448c0 282.169-229.831 512-512 512s-512-229.831-512-512c0-282.169 229.831-512 512-512s512 229.831 512 512zM512-18.489c-257.138 0-466.489 209.351-466.489 466.489s209.351 466.489 466.489 466.489c257.138 0 466.489-209.351 466.489-466.489s-209.351-466.489-466.489-466.489z" />
<glyph unicode="&#xe920;" glyph-name="more-icon" d="M512 960c-282.169 0-512-229.831-512-512s229.831-512 512-512c282.169 0 512 229.831 512 512s-229.831 512-512 512zM512-18.489c-257.138 0-466.489 209.351-466.489 466.489s209.351 466.489 466.489 466.489c257.138 0 466.489-209.351 466.489-466.489s-209.351-466.489-466.489-466.489zM282.169 384.284c-36.409 0-63.716 27.307-63.716 63.716s27.307 63.716 63.716 63.716 63.716-27.307 63.716-63.716-27.307-63.716-63.716-63.716zM448.284 448c0 36.409 27.307 63.716 63.716 63.716s63.716-27.307 63.716-63.716-27.307-63.716-63.716-63.716-63.716 27.307-63.716 63.716zM741.831 384.284c-36.409 0-63.716 27.307-63.716 63.716s27.307 63.716 63.716 63.716c36.409 0 63.716-27.307 63.716-63.716s-27.307-63.716-63.716-63.716z" />
<glyph unicode="&#xe921;" glyph-name="ghost" horiz-adv-x="1034" d="M33.099 457.309c0-55.855 9.309-108.606 25.859-159.289v0c0 0 25.859-93.091 4.137-173.77-10.343-29.996-23.79-46.545-41.374-67.232-33.099-39.305-32.065-83.782 36.202-95.16 274.101-46.545 471.661-19.653 574.061 4.137 26.893 5.172 51.717 13.446 76.541 22.756 2.069 1.034 3.103 3.103 3.103 3.103v0c188.251 71.37 322.715 252.38 322.715 467.523 0 277.204-224.453 500.622-500.622 500.622s-500.622-225.487-500.622-502.691v0zM573.026 545.228c0 26.893 21.721 47.58 47.58 47.58 26.893 0 47.58-21.721 47.58-47.58 0-26.893-21.721-47.58-47.58-47.58s-47.58 20.687-47.58 47.58v0zM368.226 545.228c0 26.893 21.721 47.58 47.58 47.58 26.893 0 47.58-21.721 47.58-47.58 0-26.893-21.721-47.58-47.58-47.58s-47.58 20.687-47.58 47.58v0zM674.392 360.081c14.481-10.343 16.549-29.996 6.206-44.477s-29.996-16.549-44.477-6.206c-34.133 24.824-74.473 39.305-118.949 39.305s-85.851-14.481-118.949-39.305c-13.446-10.343-34.133-7.24-44.477 6.206-10.343 14.481-7.24 34.133 6.206 44.477 43.442 32.065 98.263 51.717 157.22 51.717s113.778-19.653 157.22-51.717v0z" />
<glyph unicode="&#xe922;" glyph-name="uniE922" horiz-adv-x="1939" d="M0 274.577l77.967 54.224c29.379-41.801 73.448-61.009 127.674-61.009 57.625 0 83.605 19.208 83.605 50.852 0 38.416-35.004 44.054-115.237 66.661-70.049 19.194-140.111 51.972-140.111 145.745 0 94.906 75.714 140.107 169.49 140.107 75.7 0 128.807-31.631 164.971-71.18l-66.676-65.542c-22.594 25.993-55.373 46.334-98.295 46.334-42.936 0-66.663-15.822-66.663-44.068 0-36.163 29.366-44.068 103.947-63.276 74.567-19.208 155.92-48.586 155.92-149.145 0-81.35-49.707-148.011-184.166-148.011-108.465 0-180.78 47.453-212.426 98.306zM481.903 919.040h114.117v-732.59h-114.117v732.59zM918.051 660.989h114.117l-2.266-88.135c29.393 62.142 89.257 98.306 160.439 98.306 105.093 0 177.408-74.579 177.408-203.383v-281.334h-114.117v272.296c0 67.794-31.645 107.329-98.308 107.329-74.581 0-123.155-45.187-123.155-122.019v-257.607h-114.117v474.546zM1689.33 276.83c-82.486 0-134.445 58.757-134.445 148.011 0 85.883 51.96 144.626 134.445 144.626 83.605 0 137.858-58.743 137.858-144.626 0-89.255-54.253-148.011-137.858-148.011zM1720.785-62.933c134.486 2.703 217.135 82.128 217.135 242.59v481.331h-114.145l3.413-88.135c-30.512 57.624-85.885 98.306-169.49 98.306-120.902 0-220.344-102.824-220.344-246.317s99.441-248.57 222.596-248.57c79.086 0 135.592 38.416 163.824 91.521v-82.47c0-96.531-34.28-150.046-100.438-150.046h-219.579v-98.21h217.026zM699.407 660.996h115.25v-474.546h-115.25v474.546zM93.353-57.574h-19.031v73.924h-24.369v15.836h67.769v-15.836h-24.369v-73.924zM256.281-57.574h-51.7v89.76h51.7v-15.59h-32.669v-19.713h30.403v-15.59h-30.403v-23.153h32.669v-15.713zM348.101-57.574v89.76h19.031v-74.047h36.41v-15.713h-55.441zM542.93-57.574h-51.7v89.76h51.7v-15.59h-32.669v-19.713h30.403v-15.59h-30.403v-23.153h32.669v-15.713zM689.035 32.185h19.222l-30.526-89.76h-20.751l-30.444 89.76h19.208l16.888-53.419c0.942-3.154 1.911-6.826 2.922-11.017 0.997-4.205 1.625-7.113 1.87-8.751 0.451 3.768 1.98 10.362 4.601 19.768l17.010 53.419zM793.824 32.186h19.031v-89.76h-19.031v89.76zM962.195-32.648c0-8.109-2.922-14.484-8.751-19.153s-13.939-7.003-24.342-7.003c-9.584 0-18.048 1.802-25.42 5.406v17.679c6.061-2.703 11.181-4.601 15.386-5.706 4.191-1.106 8.027-1.666 11.509-1.666 4.178 0 7.372 0.805 9.611 2.403 2.225 1.597 3.345 3.959 3.345 7.126 0 1.747-0.491 3.317-1.474 4.696-0.983 1.365-2.43 2.689-4.328 3.959-1.911 1.256-5.788 3.29-11.632 6.075-5.488 2.58-9.611 5.051-12.341 7.427-2.744 2.375-4.942 5.133-6.58 8.287-1.625 3.154-2.444 6.839-2.444 11.058 0 7.932 2.689 14.184 8.068 18.716 5.379 4.546 12.819 6.826 22.321 6.826 4.669 0 9.12-0.56 13.352-1.666s8.669-2.662 13.297-4.669l-6.143-14.785c-4.792 1.952-8.751 3.331-11.877 4.109-3.14 0.778-6.212 1.16-9.242 1.16-3.604 0-6.362-0.833-8.287-2.512s-2.894-3.863-2.894-6.566c0-1.693 0.396-3.154 1.174-4.396 0.778-1.256 2.007-2.457 3.713-3.618 1.693-1.174 5.72-3.263 12.068-6.293 8.382-4.014 14.13-8.041 17.243-12.068s4.669-8.969 4.669-14.826zM1051.807 32.186h19.031v-89.76h-19.031v89.76zM1181.939-12.571c0-10.034 1.898-17.583 5.707-22.662 3.809-5.065 9.502-7.604 17.079-7.604 15.181 0 22.772 10.089 22.772 30.266 0 20.218-7.55 30.334-22.662 30.334-7.563 0-13.283-2.553-17.12-7.645-3.85-5.106-5.775-12.669-5.775-22.689zM1247.455-12.571c0-14.853-3.686-26.279-11.058-34.266-7.372-7.973-17.925-11.959-31.673-11.959-13.761 0-24.314 3.986-31.686 11.959-7.372 7.986-11.058 19.44-11.058 34.389 0 14.935 3.7 26.348 11.085 34.225s17.98 11.822 31.768 11.822c13.802 0 24.355-3.973 31.659-11.918s10.963-19.358 10.963-34.252zM1418.086-57.574h-24.191l-39.045 67.903h-0.56c0.778-12 1.174-20.546 1.174-25.665v-42.238h-17.010v89.76h24l38.99-67.235h0.437c-0.614 11.672-0.928 19.918-0.928 24.75v42.484h17.133v-89.76z" />
<glyph unicode="&#xe923;" glyph-name="uniE923" horiz-adv-x="1939" d="M682.667 848.669c0 42.907 35.027 74.518 75.691 74.518 40.678 0 75.705-31.611 75.705-74.518 0-45.158-35.027-75.651-75.705-75.651-40.664 0-75.691 30.492-75.691 75.651zM872.54 923.644c15.984-20.41 24.025-46.55 24.025-79.321 0-27.081-6.88-51.352-19.547-71.762 30.973 10.819 53.223 40.192 53.223 74.832 0 36.29-24.42 66.824-57.7 76.251zM944.062 946.78c20.885-26.658 31.382-60.821 31.382-103.605 0-35.39-8.996-67.083-25.526-93.741 40.446 14.121 69.507 52.498 69.507 97.739 0 47.41-31.887 87.288-75.363 99.608zM1033.255 960c23.683-30.233 35.6-68.966 35.6-117.494 0-40.111-10.21-76.060-28.966-106.293 45.865 16.017 78.83 59.525 78.83 110.836 0 53.754-36.16 98.98-85.465 112.951z" />
<glyph unicode="&#xe924;" glyph-name="quick-play" d="M512-64c-283.307 0-512 228.693-512 512s228.693 512 512 512c283.307 0 512-228.693 512-512s-228.693-512-512-512zM512 891.733c-245.76 0-443.733-197.973-443.733-443.733s197.973-443.733 443.733-443.733c245.76 0 443.733 197.973 443.733 443.733s-197.973 443.733-443.733 443.733zM750.933 430.933l-375.467-221.867v443.733z" />
<glyph unicode="&#xe925;" glyph-name="Info" d="M464.738 195.938c0-7.877 7.877-15.754 15.754-15.754h63.015c7.877 0 15.754 7.877 15.754 15.754v303.262c0 11.815-7.877 15.754-15.754 15.754h-63.015c-7.877 0-15.754-7.877-15.754-15.754v-303.262zM512 581.908c35.446 0 63.015 27.569 63.015 63.015s-27.569 59.077-63.015 59.077c-35.446 0-63.015-27.569-63.015-63.015s27.569-59.077 63.015-59.077zM512 873.354c232.369 0 425.354-189.046 425.354-425.354s-192.985-425.354-425.354-425.354-425.354 192.985-425.354 425.354 192.985 425.354 425.354 425.354zM512 960c-283.569 0-512-228.431-512-512s228.431-512 512-512 512 228.431 512 512-228.431 512-512 512v0z" />
<glyph unicode="&#xe926;" glyph-name="protect" horiz-adv-x="1062" d="M530.963-64c-11.378 0-18.963 3.793-26.548 3.793-3.793 0-3.793 0-7.585 3.793-496.83 189.63-496.83 557.511-496.83 781.274v15.17c0 22.756 15.17 45.511 37.926 53.096l470.281 163.081c11.378 3.793 26.548 3.793 37.926 0l477.867-163.081c22.756-7.585 37.926-30.341 37.926-53.096 0-208.593 0-603.022-496.83-796.444-3.793 0-3.793 0-7.585-3.793-7.585 0-15.17-3.793-26.548-3.793zM542.341-60.207c0 0 0 0 0 0s0 0 0 0zM519.585-60.207c0 0 0 0 0 0s0 0 0 0zM113.778 698.311c0-212.385 15.17-493.037 417.185-648.533 390.637 155.496 417.185 439.941 417.185 648.533l-420.978 144.119-413.393-144.119z" />
<glyph unicode="&#xe927;" glyph-name="date-select" horiz-adv-x="1144" d="M1024 839.529h-132.518v72.282c0 24.094-24.094 48.188-48.188 48.188s-48.188-18.071-48.188-48.188v-72.282h-445.741v72.282c0 24.094-24.094 48.188-48.188 48.188s-48.188-24.094-48.188-48.188v-72.282h-132.518c-66.259 0-120.471-54.212-120.471-120.471v-662.588c0-66.259 54.212-120.471 120.471-120.471h903.529c66.259 0 120.471 54.212 120.471 120.471v662.588c0 66.259-54.212 120.471-120.471 120.471zM120.471 749.176h132.518v-78.306c0-24.094 18.071-48.188 48.188-48.188s48.188 18.071 48.188 48.188v78.306h451.765v-78.306c0-24.094 18.071-48.188 48.188-48.188s48.188 18.071 48.188 48.188v78.306h126.494c18.071 0 30.118-12.047 30.118-30.118v-180.706h-963.765v180.706c0 18.071 12.047 30.118 30.118 30.118zM1024 26.353h-903.529c-18.071 0-30.118 12.047-30.118 30.118v391.529h963.765v-391.529c0-18.071-12.047-30.118-30.118-30.118z" />
<glyph unicode="&#xe928;" glyph-name="last" horiz-adv-x="1001" d="M566.613-64h-339.058v113.778h336.782c177.493 0 323.129 143.36 323.129 318.578s-143.36 318.578-320.853 318.578h-339.058v113.778h336.782c241.209 0 436.907-193.422 436.907-432.356s-195.698-432.356-434.631-432.356zM250.311 948.622l-250.311-204.8 248.036-202.524z" />
<glyph unicode="&#xe929;" glyph-name="OK" d="M512-60.988c-283.106 0-512 228.894-512 512s228.894 512 512 512c280.094 0 512-228.894 512-512s-228.894-512-512-512zM512 866.635c-228.894 0-418.635-186.729-418.635-418.635s186.729-418.635 418.635-418.635c231.906 0 418.635 186.729 418.635 418.635s-186.729 418.635-418.635 418.635zM234.918 448c0 78.306 63.247 141.553 141.553 141.553s141.553-63.247 141.553-141.553-63.247-141.553-141.553-141.553-141.553 63.247-141.553 141.553zM298.165 448c0-42.165 36.141-78.306 78.306-78.306s78.306 36.141 78.306 78.306c0 42.165-36.141 78.306-78.306 78.306s-78.306-36.141-78.306-78.306zM563.2 321.506c0-6.024 3.012-9.035 9.035-9.035h45.176c6.024 0 9.035 3.012 9.035 9.035v114.447l90.353-120.471c0 0 3.012-3.012 6.024-3.012h54.212c6.024 0 12.047 9.035 6.024 15.059l-99.388 129.506 90.353 117.459c3.012 6.024 0 15.059-6.024 15.059h-45.176c-3.012 0-6.024-3.012-6.024-3.012l-87.341-111.435v105.412c0 6.024-3.012 9.035-9.035 9.035h-48.188c-6.024 0-9.035-3.012-9.035-9.035v-259.012z" />
<glyph unicode="&#xe92a;" glyph-name="A" d="M512-64c-283.106 0-512 228.894-512 512s228.894 512 512 512c283.106 0 512-228.894 512-512s-228.894-512-512-512zM512 866.635c-231.906 0-418.635-186.729-418.635-418.635s186.729-418.635 418.635-418.635c231.906 0 418.635 186.729 418.635 418.635s-186.729 418.635-418.635 418.635zM698.729 273.318l-165.647 364.424c0 3.012-6.024 9.035-15.059 9.035h-6.024c-6.024 0-12.047-3.012-15.059-9.035l-168.659-364.424c-3.012-6.024-3.012-12.047 0-18.071s9.035-9.035 15.059-9.035h48.188c9.035 0 18.071 6.024 21.082 15.059l24.094 54.212h153.6l24.094-54.212c3.012-9.035 9.035-15.059 21.082-15.059h48.188c6.024 0 12.047 3.012 15.059 9.035s3.012 12.047 0 18.071zM554.165 393.788h-84.329l42.165 96.376 42.165-96.376z" />
<glyph unicode="&#xe92b;" glyph-name="backspace" horiz-adv-x="1489" d="M1349.818 960h-884.364l-465.455-512 465.455-512h884.364c79.127 0 139.636 60.509 139.636 139.636v744.727c0 79.127-60.509 139.636-139.636 139.636zM1266.036 252.509l-102.4-97.745-195.491 195.491-195.491-195.491-97.745 97.745 195.491 195.491-195.491 195.491 97.745 97.745 195.491-195.491 195.491 200.145 97.745-97.745-195.491-200.145 200.145-195.491z" />
<glyph unicode="&#xe92c;" glyph-name="my-tv" horiz-adv-x="1138" d="M1024.701 525.005c12.25-9.245 5.824-26.947-9.43-26.947h-91.706c-8.78 0-17.194-11.185-17.194-20.061v-431.434c0-8.874-5.731-14.56-14.467-14.56h-645.997c-8.78 0-12.294 5.686-12.294 14.56v431.434c0 8.874-10.63 20.061-19.416 20.061h-91.615c-15.256 0-21.678 17.981-9.43 27.226l446.318 335.293c2.644 2.111 6.042 3.391 9.736 3.391 3.424 0 6.591-1.097 9.17-2.96l-0.044 0.031 446.365-336.032zM825.995 123.152v438.183c0 5.13-1.478 9.937-5.452 12.989l-242.573 185.072c-2.505 1.981-5.712 3.182-9.196 3.182s-6.692-1.199-9.229-3.203l-242.541-185.049c-3.974-3.050-4.576-7.857-4.576-12.942v-438.23c0-8.922 3.514-14.653 12.25-14.653h486.902c8.78 0 14.467 5.731 14.467 14.653z" />
<glyph unicode="&#xe92d;" glyph-name="info" d="M512 960c282.778 0 512-229.222 512-512s-229.222-512-512-512-512 229.222-512 512 229.222 512 512 512zM512 29.082c231.014 0 418.918 187.904 418.918 418.918s-187.904 418.918-418.918 418.918c-231.014 0-418.918-187.904-418.918-418.918s187.904-418.918 418.918-418.918zM567.962 674.406v-53.35c0-12.442-8.806-22.528-19.712-22.528h-58.982c-10.906 0-19.763 10.086-19.763 22.528v53.35c0 12.442 8.858 22.528 19.763 22.528h58.982c10.906 0 19.712-10.086 19.712-22.528zM616.858 298.189v-66.304c-0.029-10.847-8.814-19.632-19.658-19.661h-189.136v85.965h61.44v164.608h-41.779c-10.847 0.029-19.632 8.814-19.661 19.658v66.256h139.93c10.906 0 19.712-8.806 19.712-19.661v-230.912h49.152z" />
<glyph unicode="&#xe92e;" glyph-name="close-caption-off" d="M274.637 280.269c-10.752 7.014-20.48 15.462-29.082 25.344-29.235 33.434-44.032 81.152-44.032 141.824 0 38.093 7.117 72.141 21.197 101.222 13.935 29.225 35.549 52.88 62.256 68.924l0.72 0.401c27.494 16.128 58.368 23.962 94.618 23.962 35.226 0 73.062-9.216 109.466-26.624l-42.496-88.832c-22.886 10.957-46.694 16.998-66.97 16.998-18.432 0-32.614-3.277-44.646-10.342-10.731-6.451-19.119-15.844-24.167-27.063l-0.153-0.38c-7.578-15.616-11.418-35.226-11.418-58.368 0-35.584 6.861-62.208 19.763-77.005 4.813-5.478 12.8-12.288 29.389-15.718l227.994 228.045c6.451 7.834 13.619 15.002 21.402 21.402l172.698 172.646c-70.396 56.19-160.676 90.163-258.892 90.163-0.099 0-0.199 0-0.298 0h0.016c-231.014 0-418.918-187.904-418.918-418.867 0-97.792 33.792-187.802 90.112-259.174l91.443 91.443zM463.718 330.138l22.016-52.89c-28.629-11.768-61.795-19.857-96.455-22.656l-1.183-0.077-135.27-135.27c70.384-56.159 160.641-90.112 258.827-90.112 0.122 0 0.244 0 0.366 0h-0.019c231.014 0 418.918 187.904 418.918 418.867 0 0.103 0 0.225 0 0.347 0 98.187-33.954 188.443-90.76 259.668l0.648-0.841-72.294-72.294c18.022-4.506 36.198-11.059 54.016-19.558l-42.496-88.832c-22.886 10.957-46.694 16.998-67.021 16.998-18.432 0-32.614-3.277-44.646-10.342-1.536-0.922-3.072-1.894-4.454-2.918l-13.158-13.158c-2.349-3.274-4.565-6.999-6.457-10.911l-0.199-0.455c-7.578-15.616-11.418-35.226-11.418-58.368 0-35.584 6.81-62.208 19.763-77.005 6.707-7.68 19.61-17.92 53.862-17.92 22.938 0 55.808 7.987 74.291 15.718l37.888-90.931c-27.802-11.571-73.267-23.245-112.179-23.245-55.040 0-98.099 17.408-128 51.61-21.811 24.883-35.584 57.702-41.216 97.894l-73.37-73.37zM512 960c282.778 0 512-229.222 512-512s-229.222-512-512-512-512 229.222-512 512 229.222 512 512 512z" />
<glyph unicode="&#xe92f;" glyph-name="close-caption-on" d="M512 960c282.778 0 512-229.222 512-512s-229.222-512-512-512-512 229.222-512 512 229.222 512 512 512zM512 29.082c231.014 0 418.918 187.904 418.918 418.918s-187.904 418.918-418.918 418.918c-231.014 0-418.918-187.904-418.918-418.918s187.904-418.918 418.918-418.918zM373.555 254.003c-55.040 0-98.099 17.408-128 51.61-29.235 33.434-44.032 81.152-44.032 141.824 0 38.093 7.117 72.141 21.197 101.222 13.935 29.225 35.549 52.88 62.256 68.924l0.72 0.401c27.494 16.128 58.368 23.962 94.618 23.962 35.226 0 73.062-9.216 109.466-26.624l-42.496-88.832c-22.886 10.957-46.694 16.998-66.97 16.998-18.432 0-32.614-3.277-44.646-10.342-10.731-6.451-19.119-15.844-24.167-27.063l-0.153-0.38c-7.578-15.616-11.418-35.226-11.418-58.368 0-35.584 6.861-62.208 19.763-77.005 6.758-7.68 19.61-17.92 53.862-17.92 22.938 0 55.808 7.987 74.342 15.718l37.888-90.931c-27.853-11.571-73.318-23.245-112.23-23.245zM706.304 254.003c-55.040 0-98.099 17.408-128 51.61-29.286 33.434-44.083 81.152-44.083 141.824 0 38.093 7.168 72.141 21.197 101.222 13.927 29.245 35.542 52.918 62.256 68.975l0.72 0.401c27.494 16.128 58.419 23.962 94.618 23.962 35.226 0 73.062-9.216 109.517-26.624l-42.496-88.832c-22.886 10.957-46.694 16.998-67.021 16.998-18.432 0-32.614-3.277-44.646-10.342-10.731-6.451-19.119-15.844-24.167-27.063l-0.153-0.38c-7.526-15.616-11.366-35.226-11.366-58.368 0-35.584 6.81-62.208 19.763-77.005 6.707-7.68 19.61-17.92 53.862-17.92 22.938 0 55.808 7.987 74.291 15.718l37.888-90.931c-27.802-11.571-73.267-23.245-112.179-23.245z" />
<glyph unicode="&#xe930;" glyph-name="chevron-up" horiz-adv-x="1755" d="M105.472-46.144c11.712-11.712 25.248-17.568 40.512-17.568 15.936 0.032 30.304 6.752 40.416 17.536l691.232 691.296 691.36-691.2c11.712-11.776 25.248-17.632 40.448-17.632 15.936 0.032 30.304 6.752 40.416 17.536l87.936 88.032c10.816 10.144 17.568 24.512 17.632 40.448-0.032 15.936-6.752 30.304-17.536 40.416l-819.808 819.744c-10.144 10.784-24.448 17.504-40.352 17.568-15.936-0.032-30.304-6.752-40.416-17.536l-819.744-819.744c-10.784-10.144-17.536-24.512-17.568-40.448 0-15.296 5.856-28.736 17.568-40.512l87.904-87.904z" />
<glyph unicode="&#xe931;" glyph-name="skip-forward-30" horiz-adv-x="960" d="M310.176 344.064c0-34.112 15.104-49.76 48.96-49.76 31.136 0 48.096 20.736 48.096 49.28 0 37.344-21.056 51.648-66.848 52.096v52.544c42.56 0 59.040 12 59.040 42.88 0 23.040-15.104 40.128-42.56 40.128-22.4 0-38.912-16.16-39.808-38.72h-60.448c0.48 61.28 45.344 91.264 100.704 91.264 59.52 0 102.56-31.36 102.56-90.336 0-29.056-13.76-59.008-39.84-72.384 35.264-13.824 47.616-42.88 47.616-80.224 0-65.92-48.064-99.104-107.584-99.104-74.144 0-110.304 39.68-110.304 102.336h60.416zM574.752 363.904c0-53.952 16.48-69.632 50.368-69.632s50.368 15.68 50.368 69.632v97.696c0 53.92-16.48 69.632-50.368 69.632s-50.368-15.68-50.368-69.632v-97.696zM447.136 824.48c-207.296-16.896-370.848-192.16-370.848-405.152 0-224.16 181.12-406.528 403.712-406.528s403.712 182.336 403.712 406.496c0 21.216 17.056 38.4 38.144 38.4 21.056 0 38.144-17.184 38.144-38.4 0-266.464-215.36-483.296-480-483.296s-480 216.832-480 483.328c0 255.36 197.76 465.12 447.136 482.176v58.496l159.68-96-159.68-96v56.48zM514.336 468.512c0 71.008 39.36 115.264 110.784 115.264s110.784-44.256 110.784-115.264v-111.52c0-71.040-39.36-115.264-110.784-115.264s-110.784 44.256-110.784 115.264v111.488z" />
<glyph unicode="&#xe932;" glyph-name="skip-back-10" horiz-adv-x="960" d="M327.424 507.84h-50.816v36.416c48.544 9.664 56.768 26.272 72.32 46.56h36.16v-337.408h-57.664v254.432zM523.776 370.944c0-53.92 16.48-69.632 50.368-69.632s50.368 15.68 50.368 69.632v97.696c0 53.952-16.48 69.632-50.368 69.632s-50.368-15.68-50.368-69.632v-97.696zM511.040 824.64c208.16-16 372.704-191.68 372.704-405.312 0-224.16-181.12-406.496-403.712-406.496s-403.712 182.336-403.712 406.496c0 21.216-17.056 38.4-38.144 38.4-21.056 0-38.144-17.184-38.144-38.4-0.032-266.496 215.328-483.328 479.968-483.328s480 216.832 480 483.328c0 256-198.72 466.144-448.96 482.304v58.368l-159.712-96 159.68-96v56.64zM463.36 475.52c0 71.040 39.36 115.264 110.784 115.264s110.784-44.256 110.784-115.264v-111.52c0-71.008-39.36-115.264-110.784-115.264s-110.784 44.256-110.784 115.264v111.52z" />
<glyph unicode="&#xe933;" glyph-name="filter1" d="M339.2 476.8c31.81 0 57.6 25.789 57.6 57.6s-25.79 57.6-57.6 57.6c-31.81 0-57.6-25.789-57.6-57.6s25.789-57.6 57.6-57.6zM713.6 304c31.811 0 57.6 25.789 57.6 57.6s-25.789 57.6-57.6 57.6c-31.811 0-57.6-25.789-57.6-57.6s25.789-57.6 57.6-57.6zM828.8 390.4h115.2v-57.6h-115.2v57.6zM80 390.4h518.4v-57.6h-518.4v57.6zM454.4 563.2h489.6v-57.6h-489.6v57.6zM80 563.2h144v-57.6h-144v57.6z" />
<glyph unicode="&#xe934;" glyph-name="channel-recall" horiz-adv-x="918" d="M104.66 36.405l66.295 66.895c48.949-35.82 107.649-61.404 171.352-72.356l2.445-0.348v-94.596c-91.772 12.771-173.421 48.534-241.25 101.24l1.14-0.852zM824.373 514.489c-32.839 199.327-204.394 351.903-411.136 351.903-79.272 0-152.541-23.605-215.676-62.499l0.265-0.177 77.753-45.903c13.118-7.645 13.224-26.377 0.106-33.845l-246.254-140.553c-13.118-7.521-29.484 2.048-29.431 17.231l0.671 285.555c0 0.034 0 0.074 0 0.115 0 10.618 8.608 19.226 19.226 19.226 3.717 0 7.187-1.055 10.128-2.881l-0.082 0.047 78.018-45.992c85.169 64.477 190.57 103.283 305.258 103.283 258.383 0 471.34-194.101 504.85-445.511h-93.678zM481.686 30.561c66.147 11.336 124.842 36.928 174.965 73.553l-1.168-0.813 66.295-66.913c-66.685-51.862-148.336-87.627-237.456-100.083l-2.654-0.304v94.579zM752.269 200.969c35.54 49.515 60.919 108.734 71.775 172.891l0.347 2.477h93.678c-12.553-92.41-48.001-174.773-100.403-243.516l0.916 1.252-66.313 66.913z" />
<glyph unicode="&#xe937;" glyph-name="skip-back" d="M118.004 120.661c-2.881 3.7-4.619 8.414-4.619 13.534 0 5.861 2.277 11.189 5.995 15.149l91.32 92.002c4.431 3.731 10.201 5.998 16.501 5.998 0.044 0 0.089 0 0.133 0 6.21-0.458 11.647-3.46 15.322-7.958 62.326-81.037 159.273-132.722 268.292-132.722 0.369 0 0.738 0.001 1.107 0.002 187.92 0 341.277 153.307 341.277 341.333 0 187.928-153.356 341.285-341.333 341.285-0.096 0-0.21 0-0.324 0-89.652 0-171.189-34.747-231.877-91.509l91.523-91.787c12.678-12.044 15.994-30.72 9.362-46.031-6.522-15.666-21.656-26.503-39.336-26.624h-298.682c-23.498 0.165-42.502 19.169-42.667 42.651v298.682c0 17.31 10.728 32.67 26.673 39.351 4.805 2.125 10.409 3.362 16.301 3.362 11.677 0 22.219-4.857 29.717-12.661l86.614-86.030c94.062 88.649 221.379 141.312 352.695 141.312 281.99 0 512-229.961 512-512s-230.010-512-512-512c-152.625 0-296.667 67.34-393.996 184.661z" />
<glyph unicode="&#xe938;" glyph-name="skip-forward" d="M905.996 120.661c2.894 3.706 4.641 8.43 4.641 13.563 0 5.847-2.267 11.164-5.969 15.122l-91.32 92.001c-4.431 3.731-10.201 5.998-16.502 5.998-0.062 0-0.123 0-0.184-0.001-6.189-0.472-11.606-3.471-15.271-7.958-62.326-81.037-159.273-132.722-268.292-132.722-0.386 0-0.773 0.001-1.159 0.002-187.918 0-341.274 153.307-341.274 341.333 0 187.928 153.356 341.285 341.333 341.285 87.381 0 169.984-33.353 232.009-91.331l-91.331-91.965c-7.833-7.52-12.7-18.079-12.7-29.775 0-5.875 1.228-11.463 3.442-16.522 6.404-15.42 21.542-26.278 39.231-26.407h298.683c23.519 0.137 42.551 19.152 42.715 42.651v298.731c0 17.31-10.728 32.67-26.673 39.351-4.805 2.125-10.409 3.362-16.301 3.362-11.677 0-22.219-4.857-29.717-12.661l-86.663-86.030c-94.013 88.649-221.379 141.312-352.695 141.312-281.99 0-512-229.961-512-512s230.010-512 512-512c152.674 0 296.667 67.34 393.996 184.661z" />
<glyph unicode="&#xea40;" glyph-name="arrow-left2" d="M402.746 82.746l-320 320c-24.994 24.992-24.994 65.516 0 90.51l320 320c24.994 24.992 65.516 24.992 90.51 0 24.994-24.994 24.994-65.516 0-90.51l-210.746-210.746h613.49c35.346 0 64-28.654 64-64s-28.654-64-64-64h-613.49l210.746-210.746c12.496-12.496 18.744-28.876 18.744-45.254s-6.248-32.758-18.744-45.254c-24.994-24.994-65.516-24.994-90.51 0z" />
<glyph unicode="&#xf04a;" glyph-name="uniF04A" horiz-adv-x="951" d="M925.143 879.429q10.857 10.857 18.286 7.429t7.429-18.286v-841.143q0-14.857-7.429-18.286t-18.286 7.429l-405.714 405.714q-4.571 5.143-7.429 10.857v-405.714q0-14.857-7.429-18.286t-18.286 7.429l-405.714 405.714q-10.857 10.857-10.857 25.714t10.857 25.714l405.714 405.714q10.857 10.857 18.286 7.429t7.429-18.286v-405.714q2.857 6.286 7.429 10.857z" />
<glyph unicode="&#xf04e;" glyph-name="uniF04E" horiz-adv-x="951" d="M25.714 16.571q-10.857-10.857-18.286-7.429t-7.429 18.286v841.143q0 14.857 7.429 18.286t18.286-7.429l405.714-405.714q4.571-4.571 7.429-10.857v405.714q0 14.857 7.429 18.286t18.286-7.429l405.714-405.714q10.857-10.857 10.857-25.714t-10.857-25.714l-405.714-405.714q-10.857-10.857-18.286-7.429t-7.429 18.286v405.714q-2.857-5.714-7.429-10.857z" />
</font>
</defs>
</svg>
