<?xml version="1.0" encoding="utf-8"?>
<!-- Generator: Adobe Illustrator 19.2.1, SVG Export Plug-In . SVG Version: 6.00 Build 0)  -->
<svg version="1.1" id="Layer_1" xmlns="http://www.w3.org/2000/svg" xmlns:xlink="http://www.w3.org/1999/xlink" x="0px" y="0px"
	 viewBox="0 0 145 95" style="enable-background:new 0 0 145 95;" xml:space="preserve">
<style type="text/css">
	.st0{fill:#222222;}
</style>
<title>TV</title>
<desc>Created with Sketch.</desc>
<g id="Specs">
	<g id="Main-Nav" transform="translate(-847.000000, -413.000000)">
		<g id="Row" transform="translate(-258.000000, 316.000000)">
			<g id="Tile-Copy-2" transform="translate(1019.000000, 39.000000)">
				<g id="Generic-TV">
					<g id="TV" transform="translate(86.000000, 58.000000)">
						<path id="Fill-1" class="st0" d="M6.2,72.5h132.9V6.1H6.2V72.5z M0.7,4.9c0-2.5,2-4.6,4.5-4.6h135c2.5,0,4.5,2,4.5,4.6v69.9
							c0,2.5-2,4.6-4.5,4.6H87.9v7.7c0,0.5-0.1,1-0.2,1.4h13.5c1.7,0,3.1,1.4,3.1,3.2s-1.4,3.2-3.1,3.2h-56c-1.7,0-3.1-1.4-3.1-3.2
							c0-0.9,0.4-1.7,0.9-2.2c0.6-0.6,1.3-0.9,2.2-0.9h13.5c-0.2-0.5-0.2-0.9-0.2-1.4v-7.7H5.2c-2.5,0-4.5-2-4.5-4.6V4.9z"/>
						<polygon id="Fill-2" class="st0" points="64.1,26.3 89.4,41 64.1,55.8 						"/>
					</g>
				</g>
			</g>
		</g>
	</g>
</g>
</svg>
